<svg width="13" height="14" viewBox="0 0 13 14" fill="none" xmlns="http://www.w3.org/2000/svg">
<path d="M2.9585 3.66667C2.9585 1.71066 4.54415 0.125 6.50016 0.125C8.45617 0.125 10.0418 1.71066 10.0418 3.66667C10.0418 5.62268 8.45617 7.20833 6.50016 7.20833C4.54415 7.20833 2.9585 5.62268 2.9585 3.66667ZM6.50016 5.79167C7.67377 5.79167 8.62516 4.84027 8.62516 3.66667C8.62516 2.49306 7.67377 1.54167 6.50016 1.54167C5.32656 1.54167 4.37516 2.49306 4.37516 3.66667C4.37516 4.84027 5.32656 5.79167 6.50016 5.79167Z" fill="#333333"/>
<path d="M2.49322 9.5764C1.43052 10.6391 0.833496 12.0804 0.833496 13.5833H2.25016C2.25016 12.4562 2.69793 11.3752 3.49496 10.5781C4.29199 9.7811 5.37299 9.33333 6.50016 9.33333C7.62733 9.33333 8.70834 9.7811 9.50537 10.5781C10.3024 11.3752 10.7502 12.4562 10.7502 13.5833H12.1668C12.1668 12.0804 11.5698 10.6391 10.5071 9.5764C9.44439 8.51369 8.00306 7.91667 6.50016 7.91667C4.99727 7.91667 3.55593 8.51369 2.49322 9.5764Z" fill="#333333"/>
</svg>
